<svg id="Layer_1" data-name="Layer 1" xmlns="http://www.w3.org/2000/svg" viewBox="0 0 67.23 96.94"><defs><style>.cls-1{fill:#b06a2c;stroke:#eb9f5b;}.cls-1,.cls-2,.cls-4,.cls-7,.cls-8{stroke-miterlimit:10;}.cls-2,.cls-5{fill:#fff;}.cls-2{stroke:#000;}.cls-3{opacity:0.15;}.cls-4{fill:#8c746a;stroke:#603813;}.cls-6{fill:#8a2d3d;}.cls-7{fill:#ff85a9;stroke:#ff85a9;}.cls-8{fill:none;stroke:#754c24;opacity:0.26;}</style></defs><title>sesame2</title><path class="cls-1" d="M115.5,57.5" transform="translate(-83.4 -29.04)"/><path class="cls-2" d="M142.5,111.5" transform="translate(-83.4 -29.04)"/><path class="cls-2" d="M143.5,109.5" transform="translate(-83.4 -29.04)"/><path class="cls-2" d="M143.5,27.5" transform="translate(-83.4 -29.04)"/><path class="cls-3" d="M117.57,126c10.93.08,24.31-2.78,24.43-6.12s-13-7.09-24.43-7.36C105.73,112.23,92,115.6,92,119S105.83,125.91,117.57,126Z" transform="translate(-83.4 -29.04)"/><path class="cls-2" d="M107.5,88.5" transform="translate(-83.4 -29.04)"/><path class="cls-4" d="M115.5,29.56c-11.78.57-19.13,15.24-23,23-8.46,16.9-14.53,46.7,1,59.92,7.25,6.18,16.89,6.76,20.64,7,2.53.16,16.22,1,25.79-7,15.95-13.29,10.66-42.88,1.6-59.92C138.62,47.12,129,28.91,115.5,29.56Z" transform="translate(-83.4 -29.04)"/><path d="M104.94,91.3" transform="translate(-83.4 -29.04)"/><path d="M104.94,95.8c5.79,0,5.8-9,0-9s-5.8,9,0,9Z" transform="translate(-83.4 -29.04)"/><path d="M128.94,91.3" transform="translate(-83.4 -29.04)"/><path d="M128.94,95.8c5.79,0,5.8-9,0-9s-5.8,9,0,9Z" transform="translate(-83.4 -29.04)"/><path class="cls-5" d="M129.56,92.26a1.5,1.5,0,0,0,0-3,1.5,1.5,0,0,0,0,3Z" transform="translate(-83.4 -29.04)"/><path class="cls-5" d="M105.77,92.05a1.5,1.5,0,0,0,0-3,1.5,1.5,0,0,0,0,3Z" transform="translate(-83.4 -29.04)"/><path class="cls-6" d="M112.5,96c.72,2.49,2.25,4.23,4,4.49,2.07.31,4.1-1.49,5-4.49" transform="translate(-83.4 -29.04)"/><ellipse class="cls-7" cx="33.55" cy="69.73" rx="2.25" ry="1.25"/><path class="cls-1" d="M150.5,86.5" transform="translate(-83.4 -29.04)"/><path class="cls-8" d="M108,32.2A90.29,90.29,0,0,0,95.36,69a100.41,100.41,0,0,0,5.9,48" transform="translate(-83.4 -29.04)"/><path class="cls-8" d="M125,32.2A91.72,91.72,0,0,1,137.29,69a102.78,102.78,0,0,1-5.74,48" transform="translate(-83.4 -29.04)"/></svg>